<svg width="15" height="21" viewBox="0 0 15 21" fill="none" xmlns="http://www.w3.org/2000/svg">
<path d="M7.5 0.5C3.63 0.5 0.5 3.63 0.5 7.5C0.5 12.75 7.5 20.5 7.5 20.5C7.5 20.5 14.5 12.75 14.5 7.5C14.5 3.63 11.37 0.5 7.5 0.5ZM2.5 7.5C2.5 4.74 4.74 2.5 7.5 2.5C10.26 2.5 12.5 4.74 12.5 7.5C12.5 10.38 9.62 14.69 7.5 17.38C5.42 14.71 2.5 10.35 2.5 7.5Z" fill="#FA58A6"/>
<path d="M7.5 10C8.88071 10 10 8.88071 10 7.5C10 6.11929 8.88071 5 7.5 5C6.11929 5 5 6.11929 5 7.5C5 8.88071 6.11929 10 7.5 10Z" fill="#FA58A6"/>
</svg>
