<svg width="25" height="24" viewBox="0 0 25 24" fill="none" xmlns="http://www.w3.org/2000/svg">
<path d="M16.9615 13C17.7115 13 18.3715 12.59 18.7115 11.97L22.2915 5.48C22.6615 4.82 22.1815 4 21.4215 4H6.6215L5.6815 2H2.4115V4H4.4115L8.0115 11.59L6.6615 14.03C5.9315 15.37 6.8915 17 8.4115 17H20.4115V15H8.4115L9.5115 13H16.9615ZM7.5715 6H19.7215L16.9615 11H9.9415L7.5715 6ZM8.4115 18C7.3115 18 6.4215 18.9 6.4215 20C6.4215 21.1 7.3115 22 8.4115 22C9.5115 22 10.4115 21.1 10.4115 20C10.4115 18.9 9.5115 18 8.4115 18ZM18.4115 18C17.3115 18 16.4215 18.9 16.4215 20C16.4215 21.1 17.3115 22 18.4115 22C19.5115 22 20.4115 21.1 20.4115 20C20.4115 18.9 19.5115 18 18.4115 18Z" fill="#ffffff"/>
</svg>
