<svg width="31" height="32" viewBox="0 0 31 32" fill="none" xmlns="http://www.w3.org/2000/svg">
<path d="M1.10352 30.2859L20.6795 10.7098M10.1738 21.2156L10.511 20.9435C10.8382 20.6597 11.1345 20.3417 11.3949 19.9945C13.4181 17.297 12.8714 13.47 10.1738 11.4468L9.83659 11.719C9.50943 12.0027 9.21309 12.3208 8.95275 12.6679C6.92954 15.3655 7.47624 19.1924 10.1738 21.2156ZM10.1738 21.2156L10.446 21.5529C10.7298 21.88 11.0478 22.1764 11.3949 22.4367C14.0925 24.4599 17.9194 23.9132 19.9425 21.2156L19.6704 20.8784C19.3866 20.5512 19.0685 20.2548 18.7214 19.9945C16.0239 17.9713 12.197 18.5181 10.1738 21.2156ZM15.0582 16.3312L15.3954 16.0591C15.7226 15.7753 16.0189 15.4573 16.2792 15.1101C18.3025 12.4126 17.7558 8.5856 15.0582 6.5624L14.7209 6.83455C14.3938 7.11832 14.0974 7.43636 13.8371 7.78347C11.8139 10.4811 12.3606 14.308 15.0582 16.3312ZM15.0582 16.3312L15.3303 16.6685C15.6141 16.9956 15.9322 17.292 16.2793 17.5523C18.9769 19.5755 22.8037 19.0288 24.8269 16.3312L24.5547 15.994C24.271 15.6668 23.9529 15.3704 23.6058 15.1101C20.9082 13.0869 17.0813 13.6337 15.0582 16.3312ZM19.9425 11.4468L20.2798 11.1747C20.6069 10.8909 20.9033 10.5729 21.1636 10.2257C23.1868 7.52816 22.6401 3.7012 19.9425 1.678L19.6053 1.95015C19.2782 2.23391 18.9818 2.55195 18.7215 2.89907C16.6983 5.59665 17.245 9.4236 19.9425 11.4468ZM19.9425 11.4468L20.2147 11.7841C20.4985 12.1112 20.8165 12.4076 21.1637 12.6679C23.8612 14.6911 27.6881 14.1444 29.7113 11.4468L29.4391 11.1096C29.1553 10.7824 28.8373 10.486 28.4901 10.2257C25.7926 8.20253 21.9657 8.74925 19.9425 11.4468ZM5.17382 26.2156L5.51105 25.9435C5.8382 25.6597 6.13455 25.3417 6.39489 24.9945C8.41809 22.297 7.8714 18.47 5.17382 16.4468L4.83659 16.719C4.50943 17.0027 4.21308 17.3208 3.95275 17.6679C1.92954 20.3655 2.47623 24.1924 5.17382 26.2156ZM5.17382 26.2156L5.44597 26.5529C5.72975 26.88 6.04781 27.1764 6.39494 27.4367C9.0925 29.4599 12.9194 28.9132 14.9425 26.2156L14.6704 25.8784C14.3866 25.5512 14.0685 25.2548 13.7214 24.9945C11.0239 22.9713 7.19697 23.5181 5.17382 26.2156ZM29.8906 1.49984C30.3675 4.83797 28.048 7.93057 24.7099 8.40743C24.2804 8.46879 23.846 8.48413 23.414 8.45345L22.983 8.40736C22.5062 5.0693 24.8256 1.9767 28.1637 1.49984C28.7364 1.41802 29.3179 1.41802 29.8906 1.49984Z" stroke="#79043C" stroke-width="1.66667" stroke-linecap="round"/>
</svg>
