<svg width="14" height="14" viewBox="0 0 14 14" fill="none" xmlns="http://www.w3.org/2000/svg">
<path d="M10.0309 7.66668C10.5309 7.66668 10.9709 7.39334 11.1975 6.98001L13.5842 2.65334C13.8309 2.21334 13.5109 1.66668 13.0042 1.66668H3.13752L2.51086 0.333344H0.330856V1.66668H1.66419L4.06419 6.72668L3.16419 8.35334C2.67752 9.24668 3.31752 10.3333 4.33086 10.3333H12.3309V9.00001H4.33086L5.06419 7.66668H10.0309ZM3.77086 3.00001H11.8709L10.0309 6.33334H5.35086L3.77086 3.00001ZM4.33086 11C3.59752 11 3.00419 11.6 3.00419 12.3333C3.00419 13.0667 3.59752 13.6667 4.33086 13.6667C5.06419 13.6667 5.66419 13.0667 5.66419 12.3333C5.66419 11.6 5.06419 11 4.33086 11ZM10.9975 11C10.2642 11 9.67086 11.6 9.67086 12.3333C9.67086 13.0667 10.2642 13.6667 10.9975 13.6667C11.7309 13.6667 12.3309 13.0667 12.3309 12.3333C12.3309 11.6 11.7309 11 10.9975 11Z" fill="#0C0C0C"/>
</svg>
