<svg width="25" height="24" viewBox="0 0 25 24" fill="none" xmlns="http://www.w3.org/2000/svg">
<path d="M12.9053 2C7.38528 2 2.91528 6.48 2.91528 12C2.91528 17.52 7.38528 22 12.9053 22C18.4353 22 22.9153 17.52 22.9153 12C22.9153 6.48 18.4353 2 12.9053 2ZM19.8353 8H16.8853C16.5653 6.75 16.1053 5.55 15.5053 4.44C17.3453 5.07 18.8753 6.35 19.8353 8ZM12.9153 4.04C13.7453 5.24 14.3953 6.57 14.8253 8H11.0053C11.4353 6.57 12.0853 5.24 12.9153 4.04ZM5.17528 14C5.01528 13.36 4.91528 12.69 4.91528 12C4.91528 11.31 5.01528 10.64 5.17528 10H8.55528C8.47528 10.66 8.41528 11.32 8.41528 12C8.41528 12.68 8.47528 13.34 8.55528 14H5.17528ZM5.99528 16H8.94528C9.26528 17.25 9.72528 18.45 10.3253 19.56C8.48528 18.93 6.95528 17.66 5.99528 16ZM8.94528 8H5.99528C6.95528 6.34 8.48528 5.07 10.3253 4.44C9.72528 5.55 9.26528 6.75 8.94528 8ZM12.9153 19.96C12.0853 18.76 11.4353 17.43 11.0053 16H14.8253C14.3953 17.43 13.7453 18.76 12.9153 19.96ZM15.2553 14H10.5753C10.4853 13.34 10.4153 12.68 10.4153 12C10.4153 11.32 10.4853 10.65 10.5753 10H15.2553C15.3453 10.65 15.4153 11.32 15.4153 12C15.4153 12.68 15.3453 13.34 15.2553 14ZM15.5053 19.56C16.1053 18.45 16.5653 17.25 16.8853 16H19.8353C18.8753 17.65 17.3453 18.93 15.5053 19.56ZM17.2753 14C17.3553 13.34 17.4153 12.68 17.4153 12C17.4153 11.32 17.3553 10.66 17.2753 10H20.6553C20.8153 10.64 20.9153 11.31 20.9153 12C20.9153 12.69 20.8153 13.36 20.6553 14H17.2753Z" fill="#0C0C0C"/>
</svg>
